<svg id="symbols" xmlns="http://www.w3.org/2000/svg" viewBox="0 0 32 32"><title>MODUS_9</title><path d="M13.41,17H3.59A1.65,1.65,0,0,0,2,18.7v3.6A1.65,1.65,0,0,0,3.59,24h9.82A1.65,1.65,0,0,0,15,22.3V18.7A1.65,1.65,0,0,0,13.41,17Z"/><path d="M28.41,17H18.59A1.65,1.65,0,0,0,17,18.7v3.6A1.65,1.65,0,0,0,18.59,24h9.82A1.65,1.65,0,0,0,30,22.3V18.7A1.65,1.65,0,0,0,28.41,17ZM29,22.3a.65.65,0,0,1-.59.7H18.59a.65.65,0,0,1-.59-.7V18.7a.65.65,0,0,1,.59-.7h9.82a.65.65,0,0,1,.59.7Z"/><path d="M28.41,9H18.59A1.65,1.65,0,0,0,17,10.7v3.6A1.65,1.65,0,0,0,18.59,16h9.82A1.65,1.65,0,0,0,30,14.3V10.7A1.65,1.65,0,0,0,28.41,9ZM29,14.3a.65.65,0,0,1-.59.7H18.59a.65.65,0,0,1-.59-.7V10.7a.65.65,0,0,1,.59-.7h9.82a.65.65,0,0,1,.59.7Z"/><path d="M13.41,9H3.59A1.65,1.65,0,0,0,2,10.7v3.6A1.65,1.65,0,0,0,3.59,16h9.82A1.65,1.65,0,0,0,15,14.3V10.7A1.65,1.65,0,0,0,13.41,9Z"/></svg>