<svg id="symbols" xmlns="http://www.w3.org/2000/svg" viewBox="0 0 32 32"><title>MODUS_7</title><path d="M28.32,16H23V13.7A1.69,1.69,0,0,0,21.32,12H16V9.7A1.69,1.69,0,0,0,14.32,8H3.68A1.69,1.69,0,0,0,2,9.7v3.6A1.69,1.69,0,0,0,3.68,15H9v2.3A1.69,1.69,0,0,0,10.68,19H16v2.3A1.69,1.69,0,0,0,17.68,23H28.32A1.69,1.69,0,0,0,30,21.3V17.7A1.69,1.69,0,0,0,28.32,16ZM3.68,14A.69.69,0,0,1,3,13.3V9.7A.69.69,0,0,1,3.68,9H14.32a.69.69,0,0,1,.68.7V12H10.68A1.69,1.69,0,0,0,9,13.7V14ZM15,13v.3a.69.69,0,0,1-.68.7H10v-.3a.69.69,0,0,1,.68-.7Zm-4.32,5a.69.69,0,0,1-.68-.7V15h4.32A1.69,1.69,0,0,0,16,13.3V13h5.32a.69.69,0,0,1,.68.7V16H17.68A1.69,1.69,0,0,0,16,17.7V18Z"/></svg>