<svg id="symbols" xmlns="http://www.w3.org/2000/svg" viewBox="0 0 32 32"><title>MODUS_10</title><path d="M26.59,18H18.41a.46.46,0,0,0-.41.5v3a.46.46,0,0,0,.41.5h8.18a.46.46,0,0,0,.41-.5v-3A.46.46,0,0,0,26.59,18Z"/><path d="M26.59,11H18.41a.46.46,0,0,0-.41.5v3a.46.46,0,0,0,.41.5h8.18a.46.46,0,0,0,.41-.5v-3A.46.46,0,0,0,26.59,11Z"/><path d="M16,2A14,14,0,1,0,30,16,14,14,0,0,0,16,2ZM15,21.5A1.46,1.46,0,0,1,13.59,23H5.41A1.46,1.46,0,0,1,4,21.5v-3A1.46,1.46,0,0,1,5.41,17h8.18A1.46,1.46,0,0,1,15,18.5Zm0-7A1.46,1.46,0,0,1,13.59,16H5.41A1.46,1.46,0,0,1,4,14.5v-3A1.46,1.46,0,0,1,5.41,10h8.18A1.46,1.46,0,0,1,15,11.5Zm13,7A1.46,1.46,0,0,1,26.59,23H18.41A1.46,1.46,0,0,1,17,21.5v-3A1.46,1.46,0,0,1,18.41,17h8.18A1.46,1.46,0,0,1,28,18.5ZM26.59,16H18.41A1.46,1.46,0,0,1,17,14.5v-3A1.46,1.46,0,0,1,18.41,10h8.18A1.46,1.46,0,0,1,28,11.5v3A1.46,1.46,0,0,1,26.59,16Z"/></svg>