<svg id="symbols" xmlns="http://www.w3.org/2000/svg" viewBox="0 0 32 32"><title>MODUS_8</title><path d="M20.5,12.7H16v1.7A1.55,1.55,0,0,1,14.5,16H11v.6a.56.56,0,0,0,.5.6H16v-.6A1.55,1.55,0,0,1,17.5,15H21V13.3A.56.56,0,0,0,20.5,12.7Z"/><path d="M11,13.3V15h3.5a.56.56,0,0,0,.5-.6V12.7H11.5A.56.56,0,0,0,11,13.3Z"/><path d="M15,11.7v-.6a.56.56,0,0,0-.5-.6h-9a.56.56,0,0,0-.5.6v3.3a.56.56,0,0,0,.5.6H10V13.3a1.55,1.55,0,0,1,1.5-1.6Z"/><path d="M16,2A14,14,0,1,0,30,16,14,14,0,0,0,16,2ZM26.5,21.5h-9A1.55,1.55,0,0,1,16,19.9V18.2H11.5A1.55,1.55,0,0,1,10,16.6V16H5.5A1.55,1.55,0,0,1,4,14.4V11.1A1.55,1.55,0,0,1,5.5,9.5h9A1.55,1.55,0,0,1,16,11.1v.6h4.5A1.55,1.55,0,0,1,22,13.3V15h4.5A1.55,1.55,0,0,1,28,16.6v3.3A1.55,1.55,0,0,1,26.5,21.5Z"/></svg>