<svg id="symbols" xmlns="http://www.w3.org/2000/svg" viewBox="0 0 32 32"><title>MODUS_18</title><path d="M8.71,4.88A1.38,1.38,0,1,1,10.5,6.67v14a1.38,1.38,0,0,1,.79.79H17a1.38,1.38,0,0,1,.79-.79V14.06a1.38,1.38,0,1,1,1.79-1.79h3.89a1.38,1.38,0,1,1,1.79,1.79v9.27A1.38,1.38,0,0,1,26,24h1.48a14,14,0,0,0-20-19.12Z"/><path d="M26.09,25a1.38,1.38,0,1,1-1.82-1.67V14.06a1.38,1.38,0,0,1-.79-.79H19.6a1.38,1.38,0,0,1-.79.79v6.66A1.38,1.38,0,1,1,17,22.5H11.29A1.38,1.38,0,1,1,9.5,20.71v-14a1.38,1.38,0,0,1-.79-.79H6.35A14,14,0,1,0,26.71,25Z"/></svg>