<svg id="symbols" xmlns="http://www.w3.org/2000/svg" viewBox="0 0 32 32"><title>PERSON_5</title><path d="M8.51,9.19a5.75,5.75,0,0,0,0,11.49,5.75,5.75,0,0,0,0-11.49Z"/><path d="M32,16a8,8,0,0,0-4.16-7h0a14.81,14.81,0,1,0,0,14.12.47.47,0,0,0,0-.06A8,8,0,0,0,32,16ZM19.5,29c.53-2.36-4.16-6.34-8-6.61H5.43A7,7,0,0,0,3,23,13.8,13.8,0,0,1,26.33,8.34a8,8,0,1,0,0,15.29A13.81,13.81,0,0,1,19.5,29ZM24,23a7,7,0,1,1,7-7A7,7,0,0,1,24,23Z"/><path d="M25.71,16.15a3.5,3.5,0,1,0-.69.72L27.15,19a.5.5,0,0,0,.71-.71Zm-2.77.46a2.37,2.37,0,1,1,2.37-2.37h0a2.37,2.37,0,0,1-2.37,2.37h0Z"/></svg>