<svg id="symbols" xmlns="http://www.w3.org/2000/svg" viewBox="0 0 32 32"><title>PERSON_9</title><path d="M9.49,10.09a5,5,0,1,0,5,5,5,5,0,0,0-4.9-5Z"/><circle cx="22.03" cy="14.48" r="1.99"/><path d="M30,16a7,7,0,0,0-3.62-6.13h0a12.93,12.93,0,1,0,0,12.33h0A7,7,0,0,0,30,16ZM19.08,27.19c.3-2.06-3.7-5.41-7-5.63H6.83a6.13,6.13,0,0,0-2.09.5A11.91,11.91,0,0,1,24.81,9.24a7,7,0,1,0,0,13.51A11.9,11.9,0,0,1,19.08,27.19Zm7.28-8.52a.5.5,0,0,1-.71,0h0l-1.82-1.82a3,3,0,1,1,.69-.73L26.35,18a.5.5,0,0,1,0,.67Z"/></svg>