<svg id="symbols" xmlns="http://www.w3.org/2000/svg" viewBox="0 0 32 32"><title>PERSON_15</title><circle cx="22.91" cy="13.61" r="1.77"/><path d="M23.78,8.73A6.23,6.23,0,1,0,30,15a6.23,6.23,0,0,0-6.22-6.27Zm3,8.61a.44.44,0,0,1-.62,0h0l-1.61-1.62a2.63,2.63,0,0,1-1.6.55,2.67,2.67,0,1,1,2.22-1.2l1.63,1.63a.45.45,0,0,1,0,.64h0Z"/><path d="M16.52,15a7.25,7.25,0,0,1,10-6.74,13.5,13.5,0,1,0,1.58,12.6A7.24,7.24,0,0,1,16.52,15ZM9.72,9.81A5.23,5.23,0,1,1,4.49,15v0A5.18,5.18,0,0,1,9.66,9.81Zm10,18a12.43,12.43,0,0,1-15-5.42,6.38,6.38,0,0,1,2.22-.54h5.54c3.43.2,7.66,3.77,7.25,5.93Z"/></svg>