<svg id="symbols" xmlns="http://www.w3.org/2000/svg" viewBox="0 0 32 32"><title>PERSON_16</title><circle cx="23.9" cy="13.27" r="2.02"/><path d="M24.89,7.69A7.12,7.12,0,1,0,32,14.82h0A7.12,7.12,0,0,0,24.89,7.69Zm3.41,9.84a.51.51,0,0,1-.72,0l-1.84-1.85a3,3,0,0,1-1.83.63,3.05,3.05,0,1,1,2.53-1.37l1.86,1.87A.54.54,0,0,1,28.3,17.53Z"/><path d="M16.59,14.81A8.28,8.28,0,0,1,28,7.11a15.43,15.43,0,1,0,1.81,14.4,8.28,8.28,0,0,1-13.19-6.69ZM8.83,8.92a6,6,0,1,1-6,6h0a5.92,5.92,0,0,1,5.84-6ZM20.26,29.46A14.2,14.2,0,0,1,3.1,23.26a7.29,7.29,0,0,1,2.54-.62H12C15.9,22.92,20.73,27,20.26,29.46Z"/></svg>