<svg id="symbols" xmlns="http://www.w3.org/2000/svg" viewBox="0 0 32 32"><title>PERSON_14</title><path d="M25.74,15.4a3.52,3.52,0,1,0-.79.83L27,18.31a.57.57,0,0,0,.81-.81Zm-2.85.39a2.28,2.28,0,1,1,2.28-2.28,2.28,2.28,0,0,1-2.28,2.28h0Z"/><path d="M27,7.44A14.85,14.85,0,1,0,28.72,21.3,8,8,0,0,0,27,7.44ZM8.51,9.19a5.76,5.76,0,1,1-5.76,5.76A5.76,5.76,0,0,1,8.51,9.19ZM19.54,29A13.71,13.71,0,0,1,3,23a7,7,0,0,1,2.45-.6h6.12C15.33,22.66,20,26.59,19.54,29ZM24,21.71a6.86,6.86,0,1,1,6.86-6.86A6.86,6.86,0,0,1,24,21.71Z"/></svg>