<svg id="symbols" xmlns="http://www.w3.org/2000/svg" viewBox="0 0 32 32"><title>PERSON_7</title><path d="M9.13,8.62a6.22,6.22,0,1,0,6.22,6.22A6.22,6.22,0,0,0,9.13,8.62Z"/><path d="M16,0A16,16,0,1,0,32,16,16,16,0,0,0,16,0Zm5,30.1c.63-2.55-4.48-6.9-8.62-7.19H5.81a7.56,7.56,0,0,0-2.72.68A15,15,0,1,1,21,30.1Z"/><path d="M29,20.56l-2.85-2.85-.08,0a4.24,4.24,0,1,0-3.41,1.74h0a4.21,4.21,0,0,0,2.74-1v0l2.85,2.85a.5.5,0,1,0,.71-.71ZM22.67,18.4a3.25,3.25,0,1,1,3.25-3.25h0a3.25,3.25,0,0,1-3.26,3.24h0Z"/></svg>