<svg id="symbols" xmlns="http://www.w3.org/2000/svg" viewBox="0 0 32 32"><title>PERSON_6</title><path d="M9.49,10.09a5,5,0,1,0,5,5,5,5,0,0,0-4.9-5Z"/><path d="M30,16a7,7,0,0,0-3.62-6.13h0a12.93,12.93,0,1,0,0,12.33h0A7,7,0,0,0,30,16ZM19.08,27.19c.3-2.06-3.7-5.41-7-5.63H6.83a6.13,6.13,0,0,0-2.09.5A11.91,11.91,0,0,1,24.81,9.24a7,7,0,1,0,0,13.51A11.9,11.9,0,0,1,19.08,27.19ZM23,22a6,6,0,1,1,6-6A6,6,0,0,1,23,22Z"/><path d="M24.52,16.13a3.08,3.08,0,1,0-.69.72l1.82,1.82a.5.5,0,0,0,.71-.71ZM22,16.48a2,2,0,1,1,2-2A2,2,0,0,1,22,16.48Z"/></svg>