<svg id="symbols" xmlns="http://www.w3.org/2000/svg" viewBox="0 0 32 32"><title>PERSON_10</title><path d="M8.43,9.22a5.72,5.72,0,1,0,5.72,5.72A5.72,5.72,0,0,0,8.43,9.22Z"/><circle cx="22.79" cy="14.25" r="2.28"/><path d="M31.93,16a8,8,0,0,0-4.26-7.08,14.74,14.74,0,1,0,0,14.16A8,8,0,0,0,31.93,16ZM19.38,28.93c.53-2.35-4.14-6.31-7.93-6.57H5.38A7,7,0,0,0,2.93,23,13.73,13.73,0,0,1,26.11,8.28a8,8,0,1,0,0,15.41A13.74,13.74,0,0,1,19.38,28.93ZM27.75,19a.57.57,0,0,1-.81,0h0l-2.07-2a3.39,3.39,0,0,1-2.07.71,3.44,3.44,0,1,1,2.86-1.54l2.1,2.1A.61.61,0,0,1,27.75,19Z"/></svg>