<svg id="symbols" xmlns="http://www.w3.org/2000/svg" viewBox="0 0 32 32"><title>WAGON_31</title><path d="M29,13v1H28V3H4V14H3V13H2v3H3V15H4a2,2,0,0,0,4,0,2,2,0,0,0,4,.06l1.89.94h4.24L20,15.06A2,2,0,0,0,24,15a2,2,0,0,0,4,0h1v1h1V13ZM5,4H15.5v7H5ZM27,14H19.88l-2,1H14.12l-2-1H5V12H27Zm0-3H16.5V4H27Z"/><rect x="10" y="29" width="1" height="1"/><polygon points="9 29 9 26 8 26 8 29 8 30 9 30 9 29"/><polygon points="15 29 15 26 14 26 14 29 14 30 15 30 15 29"/><rect x="12" y="29" width="1" height="1"/><rect x="6" y="29" width="1" height="1"/><polygon points="3 29 3 26 2 26 2 29 2 30 3 30 3 29"/><rect x="4" y="29" width="1" height="1"/><rect x="28" y="29" width="1" height="1"/><rect x="24" y="29" width="1" height="1"/><rect x="22" y="29" width="1" height="1"/><polygon points="27 29 27 26 26 26 26 29 26 30 27 30 27 29"/><polygon points="21 29 21 26 20 26 20 29 20 30 21 30 21 29"/><rect x="16" y="29" width="1" height="1"/><rect x="18" y="29" width="1" height="1"/><rect x="2" y="20.5" width="17" height="2"/></svg>