<svg id="symbols" xmlns="http://www.w3.org/2000/svg" viewBox="0 0 32 32"><title>WAGON_43</title><path d="M29,24v1H28V22h0a.9.9,0,0,0-.11-.56l-3-5.07L16.76,2.63a.83.83,0,0,0-1.52,0L13,6.45l-8.83,15A1,1,0,0,0,4,22H4v3H3V24H2v3H3V26H4a2,2,0,0,0,4,0,2,2,0,0,0,4,.06l1.89.94h4.24L20,26.06A2,2,0,0,0,24,26a2,2,0,0,0,4,0h1v1h1V24ZM16,3.18,26.9,21.79H5.1ZM27,25H19.88l-2,1H14.12l-2-1H5V23H27Z"/><path d="M16.36,19.3c-.08,0-.18,0-.21-.09s-.16-.4-.38-.1h0l-.77-.23.15-.24-.22-.17v0l2.61.57c-.12.07-.21.09-.24.14s0,.21,0,.23a2.27,2.27,0,0,0,.55.2,4.88,4.88,0,0,0,.69,0,.6.6,0,0,0,.17,0V19.5L17.54,19v0l6.8,1.47c-.1-.17-.17-.27-.21-.38a.71.71,0,0,0-.64-.44c-1.18-.16-2.36-.35-3.54-.54l-3.33-.52c.09-.09.18-.15.19-.21s-.12-.2-.14-.19a1.3,1.3,0,0,0-.28.18l.22.22-1.79-.28a.67.67,0,0,0-.67.21c-.1.11-.16.08-.21-.06a.33.33,0,0,0-.14-.17,1.81,1.81,0,0,0-.32-.1l.17-.3a.55.55,0,0,0,0-.11l-.91-.29.09-.15c.16-.23.12-.37-.15-.43a.44.44,0,0,0-.31,0,1.11,1.11,0,0,0-.55,1.12,1.13,1.13,0,0,0,.85,1,1.18,1.18,0,0,0,1.3-.44l.31.15-.15.18c.2.24.37.3.46.16s.19-.12.32-.06c.52.25,1.06.45,1.56.74a4.69,4.69,0,0,0,2.91.65,6.73,6.73,0,0,1,.74,0,.35.35,0,0,0-.18-.1Z"/><path d="M12.13,16c0,.1.06.23.09.35l.27-.09.49.67.11-.12c.06-.07.13-.19.2-.19s.21-.1.23-.24q.62-3.43,1.25-6.87L15,8.05a.46.46,0,0,0-.17.18c-.31.53-.63,1.06-.93,1.59a1.09,1.09,0,0,0-.13.45c-.05.8-.09,1.6-.13,2.4,0,.38,0,.76-.07,1.14-.33,0-.34.05-.41.38a.77.77,0,0,1-.09.22c-.21.36-.21.43.1.69a1,1,0,0,0,.33.12l0,.66H13l-.55-3.39c-.32.37-.35.46-.25.88l.08.3.73,2.9h0L11.5,14a2.29,2.29,0,0,1-.18.3c-.14.16-.09.29,0,.44s.44.61.67.91A.44.44,0,0,1,12.13,16Z"/><path d="M14.45,16.5c.19.11.49-.21.46-.47l-.28.14,0-.13-.25.11,0,0,1-1.7.18.26a1.68,1.68,0,0,0,.29-.22.65.65,0,0,0,.07-.25,1.44,1.44,0,0,0-.24,0,.79.79,0,0,0-.18.07c.27-.56.57-1.08.87-1.6l.11-.18c.55.22.82.12,1-.38a.73.73,0,0,0,0-.29l-.23.08-.41.13,0-.07.13-.23L17.91,9.9c0-.06.08-.16.06-.22-.11-.22-.24-.43-.38-.67l-.72,1.48A13.51,13.51,0,0,1,17.37,9a.34.34,0,0,0-.11-.43L14,16.59C14.12,16.43,14.24,16.38,14.45,16.5Z"/><path d="M14.64,17l2.13-1.72a.61.61,0,0,1,.34-.13c.22,0,.22-.09.1-.24l2.62-2.12-.54-.9-4.91,5.25A.65.65,0,0,0,14.64,17Z"/><path d="M17,17.72H15.1v0l8.13.83c-.15-.24-.28-.45-.39-.67a.31.31,0,0,0-.32-.19Z"/><path d="M15.26,16.75c-.06,0-.14.09-.13.14s.07.18.11.18a2.52,2.52,0,0,0,.44-.07l-.19-.22,5.14-2.6-.39-.65-.18.11L15.79,16.5A5.16,5.16,0,0,1,15.26,16.75Z"/><path d="M16,17v0l5.78-.95c-.12-.2-.23-.36-.31-.53a.18.18,0,0,0-.25-.1l-.62.19Z"/><path d="M16.73,13.84l2.09-2.32a.3.3,0,0,0,.08-.24,4.79,4.79,0,0,0-.3-.53l-3.28,4.57C15.82,14.85,16.27,14.35,16.73,13.84Z"/><path d="M16.75,17.48l5.77-.08a2,2,0,0,0-.2-.35.35.35,0,0,0-.24-.12l-5.33.52Z"/><path d="M14.76,12a.28.28,0,0,0,0,.27c.07.09.26.19.28.17.24-.23.45-.48.68-.73-.07-.11-.1-.2-.15-.2s-.3,0-.39,0A2,2,0,0,0,14.76,12Z"/><path d="M14,18.08a.45.45,0,0,0,.48-.51c0-.07-.19-.15-.31-.17a.41.41,0,0,0-.39.42C13.77,18,13.79,18.11,14,18.08Z"/><path d="M17.18,18.32c0,.2.13.18.24.22a1.39,1.39,0,0,0,.24.05.8.8,0,0,0,.22,0,1,1,0,0,0,.19-.16,1.27,1.27,0,0,0-.21-.19,1.34,1.34,0,0,0-.29-.1A.32.32,0,0,0,17.18,18.32Z"/><path d="M18.43,15.9a.34.34,0,0,0-.15-.22c-.26-.15-.55,0-.68.39a.8.8,0,0,0,.7,0C18.35,16,18.44,15.95,18.43,15.9Z"/><path d="M13.19,17a.23.23,0,0,0-.15.16.24.24,0,0,0,.12.18.47.47,0,0,0,.7-.34C13.63,17,13.41,17,13.19,17Z"/><path d="M14.48,14.59a1.73,1.73,0,0,0,.11-.4.25.25,0,0,0-.13-.07,3.4,3.4,0,0,0-.37.44s.1.13.17.23C14.36,14.7,14.45,14.66,14.48,14.59Z"/><path d="M14.47,16.77c-.07-.05-.13-.14-.2-.15a.22.22,0,0,0-.18.13s.07.12.14.22Z"/><path d="M14.1,15.29l.25-.3-.13-.1c-.09.09-.16.19-.24.29Z"/><path d="M15.68,18.19l0-.15-.29,0,0,.11Z"/></svg>