<svg id="symbols" xmlns="http://www.w3.org/2000/svg" viewBox="0 0 32 32"><title>WAGON_36</title><path d="M29,22v1H28V11.5H4V23H3V22H2v3H3V24H4a2,2,0,0,0,4,0,2,2,0,0,0,4,.06l1.89.94h4.24L20,24.06A2,2,0,0,0,24,24a2,2,0,0,0,4,0h1v1h1V22ZM5,18.83A6.81,6.81,0,0,0,9.14,17.5l.18-.18A2.3,2.3,0,0,0,11.5,19a5.15,5.15,0,0,0,3.85-1.59A2.27,2.27,0,0,0,17.5,19a5.15,5.15,0,0,0,3.85-1.59A2.27,2.27,0,0,0,23.5,19,5.52,5.52,0,0,0,27,17.8v1.7H5ZM27,12.5v3.06h0C26.93,18,23.65,18,23.5,18c-1.42,0-1.5-2.18-1.5-2.43l-.5-.49-.48.49h0C20.93,18,17.65,18,17.5,18c-1.42,0-1.5-2.18-1.5-2.43l-.5-.49-.48.49h0C14.93,18,11.65,18,11.5,18c-1.42,0-1.5-2.18-1.5-2.43v-.49H9v.49a1.65,1.65,0,0,1-.54,1.21A5.86,5.86,0,0,1,5,17.82V12.5ZM27,23H19.88l-2,1H14.12l-2-1H5V21H27Z"/></svg>