<svg id="symbols" xmlns="http://www.w3.org/2000/svg" viewBox="0 0 32 32"><title>WAGON_39</title><path d="M29,22v1H28V12H4V23H3V22H2v3H3V24H4a2,2,0,0,0,4,0,2,2,0,0,0,4,.06l1.89.94h4.24L20,24.06A2,2,0,0,0,24,24a2,2,0,0,0,4,0h1v1h1V22ZM16.5,13H27v7H16.5ZM5,13H15.5v7H5ZM19.88,23l-2,1H14.12l-2-1H5V21H27v2Z"/><path d="M22,13.5a3,3,0,1,0,3,3A3,3,0,0,0,22,13.5Zm-2.5,3a2.49,2.49,0,0,1,1.24-2.15l.87,1.49a.78.78,0,0,0-.39.67H19.5Zm3,0A.52.52,0,1,1,22,16,.51.51,0,0,1,22.52,16.51ZM22,19a2.47,2.47,0,0,1-1.25-.35l.86-1.48a.79.79,0,0,0,.78,0l.86,1.48A2.47,2.47,0,0,1,22,19Zm2.35-2.49H22.78a.78.78,0,0,0-.39-.67l.87-1.49A2.49,2.49,0,0,1,24.5,16.5h-.15Z"/></svg>