<svg id="symbols" xmlns="http://www.w3.org/2000/svg" viewBox="0 0 32 32"><title>WAGON_34</title><path d="M29,22v1H28V12H4V23H3V22H2v3H3V24H4a2,2,0,0,0,4,0,2,2,0,0,0,4,.06l1.89.94h4.24L20,24.06A2,2,0,0,0,24,24a2,2,0,0,0,4,0h1v1h1V22ZM16.5,13H27v7H16.5ZM5,13H15.5v7H5ZM19.88,23l-2,1H14.12l-2-1H5V21H27v2Z"/><path d="M21.42,7.14l-1,2.38a1.07,1.07,0,0,0,.45,1.36,1.1,1.1,0,0,0,1,0,1.07,1.07,0,0,0,.45-1.36Z"/><path d="M25.28,2,23.05,7.55a2.51,2.51,0,0,0,1,3.16,2.58,2.58,0,0,0,2.36,0,2.51,2.51,0,0,0,1-3.16Z"/></svg>