<svg id="symbols" xmlns="http://www.w3.org/2000/svg" viewBox="0 0 32 32"><title>WAGON_37</title><path d="M26.7,15.5l-.35-.66a1.27,1.27,0,0,0-1.41-.61,11.41,11.41,0,0,1-6.46-.37L14,12.25a7,7,0,0,0-4,1.26l-1.21.86A4.94,4.94,0,0,1,6,15.25H3.8v.5H6a4.94,4.94,0,0,1,2.84.89l1.21.86a7,7,0,0,0,4,1.26l12.68.06Z"/><path d="M29,22v1H28V20H26.76A1.22,1.22,0,0,0,28,18.81V12.19A1.22,1.22,0,0,0,26.76,11H14a8.37,8.37,0,0,0-4.78,1.5L8,13.35A3.62,3.62,0,0,1,6,14H2.5v3H6A3.62,3.62,0,0,1,8,17.65l1.21.86A8.37,8.37,0,0,0,14,20H4v3H3V22H2v3H3V24H4a2,2,0,0,0,4,0,2,2,0,0,0,4,.06l1.89.94h4.24L20,24.06A2,2,0,0,0,24,24a2,2,0,0,0,4,0h1v1h1V22ZM9.81,17.69,8.6,16.83A4.63,4.63,0,0,0,6,16H3.5V15H6a4.63,4.63,0,0,0,2.65-.83l1.21-.86A7.37,7.37,0,0,1,14,12H26.76a.22.22,0,0,1,.24.19v6.62a.22.22,0,0,1-.24.19H14A7.37,7.37,0,0,1,9.81,17.69ZM27,23H19.88l-2,1H14.12l-2-1H5V21H27Z"/></svg>