<svg id="symbols" xmlns="http://www.w3.org/2000/svg" viewBox="0 0 32 32"><title>WAGON_15</title><path d="M4,11v9H15.5V11Zm10.5,8H5V12h9.5Z"/><path d="M28,11H16.5v9H28Zm-1,8H17.5V12H27Z"/><path d="M29,23H28V21H4v2H3V22H2v3H3V24H4a2,2,0,0,0,4,0,2,2,0,0,0,4,.06l1.89.94h4.24L20,24.06A2,2,0,0,0,24,24a2,2,0,0,0,4,0h1v1h1V22H29ZM6,25a1,1,0,0,1-1-1H7A1,1,0,0,1,6,25Zm4,0a1,1,0,0,1-1-1h2A1,1,0,0,1,10,25Zm12,0a1,1,0,0,1-1-1h2A1,1,0,0,1,22,25Zm4,0a1,1,0,0,1-1-1h2A1,1,0,0,1,26,25Zm1-2H19.88l-2,1H14.12l-2-1H5V22H27Z"/></svg>