<svg id="symbols" xmlns="http://www.w3.org/2000/svg" viewBox="0 0 32 32"><title>WAGON_44</title><path d="M29,24v1H28V22H23.9c0-.06,0-.13,0-.23V9.15c0-.59,0-.59-.61-.59-.43,0-.44,0-.44.45q0,3.2,0,6.39t0,6.28c0,.14,0,.24,0,.32H9.53s0-.1,0-.17q0-6.32,0-12.64c0-.67.09-.63-.65-.63-.37,0-.38,0-.38.38q0,3.22,0,6.45h0q0,3.13,0,6.25a3.33,3.33,0,0,0,0,.36H4v3H3V24H2v3H3V26H4a2,2,0,0,0,4,0,2,2,0,0,0,4,.06l1.89.94h4.24L20,26.06A2,2,0,0,0,24,26a2,2,0,0,0,4,0h1v1h1V24Zm-2,1H19.88l-2,1H14.12l-2-1H5V23H27Z"/><path d="M14.11,12.88a3.4,3.4,0,0,1,4.59,0A.51.51,0,0,0,19,13h3.2l.13,0V9.28H10.08V13H13.9A.39.39,0,0,0,14.11,12.88Z"/><path d="M22.32,17.81c-1.1,0-2.17,0-3.24,0a.73.73,0,0,0-.42.16,3.44,3.44,0,0,1-4.51,0,.68.68,0,0,0-.4-.15H10.3l-.23,0v3.7H22.32Z"/><path d="M27.19,12.68c0-.29,0-.59,0-.88V10.67c0-.38,0-.72,0-1.07s-.11-.34-.34-.34H24.43V13h2.5C27.11,13,27.19,12.86,27.19,12.68Z"/><path d="M24.43,13.53v3.72h3.41c.25,0,.27-.18.27-.37,0-1,0-2,0-3,0-.34-.06-.39-.4-.39H24.43Z"/><path d="M5,13H8V9.26H5c-.2,0-.3.09-.3.29q0,1.58,0,3.17A.25.25,0,0,0,5,13Z"/><path d="M5.09,21.54H7.78l.22,0V17.81H5c-.21,0-.24.17-.24.35,0,1,0,2,0,3C4.72,21.49,4.77,21.54,5.09,21.54Z"/><path d="M13.53,13.53H10.08v3.7h3.44A3.5,3.5,0,0,1,13.53,13.53Z"/><path d="M16.46,12.38a3,3,0,1,0,3,3A3,3,0,0,0,16.46,12.38Zm0,5.44a2.41,2.41,0,1,1,2.39-2.42A2.4,2.4,0,0,1,16.44,17.81Z"/><path d="M27.19,21.2c0-1,0-2,0-3,0-.27-.12-.37-.38-.37h-2.2l-.19,0v3.71h2.44C27.11,21.55,27.19,21.43,27.19,21.2Z"/><path d="M22.32,13.53h-3a3.5,3.5,0,0,1,0,3.71h3Z"/><path d="M5.64,13.8q0,1.58,0,3.16a.37.37,0,0,0,.24.27c.69,0,1.39,0,2.1,0V13.52c-.71,0-1.41,0-2.1,0A.37.37,0,0,0,5.64,13.8Z"/><path d="M15.76,13.9c-.08-.14-.16-.2-.33-.08l.75,1.87a1.14,1.14,0,0,0,.11.26.33.33,0,0,0,.45.11c.2-.1.13-.23,0-.37Q16.26,14.8,15.76,13.9Z"/></svg>