<svg id="symbols" xmlns="http://www.w3.org/2000/svg" viewBox="0 0 32 32"><title>WAGON_20</title><path d="M29,27H28V16H4V27H3V26H2v3H3V28H4a2,2,0,0,0,4,0,2,2,0,0,0,4,.06l1.89.94h4.24L20,28.06A2,2,0,0,0,24,28a2,2,0,0,0,4,0h1v1h1V26H29ZM5,17H15.5v7H5ZM27,27H19.88l-2,1H14.12l-2-1H5V25H27Zm0-3H16.5V17H27Z"/><polygon points="3 3 3 2 2 2 2 3 2 6 3 6 3 3"/><rect x="16" y="2" width="1" height="1"/><rect x="18" y="2" width="1" height="1"/><rect x="22" y="2" width="1" height="1"/><polygon points="26 3 26 6 27 6 27 3 27 2 26 2 26 3"/><rect x="28" y="2" width="1" height="1"/><rect x="24" y="2" width="1" height="1"/><polygon points="20 3 20 6 21 6 21 3 21 2 20 2 20 3"/><polygon points="14 3 14 6 15 6 15 3 15 2 14 2 14 3"/><rect x="6" y="2" width="1" height="1"/><rect x="4" y="2" width="1" height="1"/><polygon points="8 3 8 6 9 6 9 3 9 2 8 2 8 3"/><rect x="12" y="2" width="1" height="1"/><rect x="10" y="2" width="1" height="1"/><rect x="2" y="10" width="17" height="1"/></svg>