<svg id="symbols" xmlns="http://www.w3.org/2000/svg" viewBox="0 0 32 32"><title>WAGON_40</title><path d="M29,22v1H28V20H4v3H3V22H2v3H3V24H4a2,2,0,0,0,4,0,2,2,0,0,0,4,.06l1.89.94h4.24L20,24.06A2,2,0,0,0,24,24a2,2,0,0,0,4,0h1v1h1V22Zm-2,1H19.88l-2,1H14.12l-2-1H5V21H27Z"/><path d="M11.22,19H21.28a1.66,1.66,0,0,0,3,0H27V14H21.86l-1-3H12v3H8.38L6,15.19V19H8.17a1.66,1.66,0,0,0,3,0Zm11.59,0a.75.75,0,1,1,.69-.75A.72.72,0,0,1,22.81,19ZM7,15.81,8.62,15H13V12h7.14l1,3H26v3H24.48a1.68,1.68,0,0,0-3.34,0H11.36A1.68,1.68,0,0,0,8,18H7ZM9.69,19a.75.75,0,1,1,.69-.75A.72.72,0,0,1,9.69,19Z"/></svg>