<svg id="symbols" xmlns="http://www.w3.org/2000/svg" viewBox="0 0 32 32"><title>LOCOMOTIVES_12</title><path d="M29,22v1H28V18.29L26.71,17H23v-.71l-.66-.66,1.38-.69-.45-.89-2.62,1.31L22,16.71V17H10v-.29l1.34-1.34L8.72,14.05l-.45.89,1.38.69L9,16.29V17H5.29L4,18.29V23H3V22H2v3H3V24H4a2,2,0,0,0,4,0,2,2,0,0,0,4,0h8a2,2,0,0,0,4,0,2,2,0,0,0,4,0h1v1h1V22ZM5,23V18.71L5.71,18H26.29l.71.71V23Z"/><polygon points="24 19 24 21 26 21 26 20 25 19 24 19"/><polygon points="6 20 6 21 8 21 8 19 7 19 6 20"/><rect x="2" y="26" width="1" height="1"/><rect x="13.4" y="26" width="2.08" height="1"/><rect x="7.16" y="26" width="2.08" height="1"/><rect x="10.28" y="26" width="2.08" height="1"/><rect x="16.52" y="26" width="2.08" height="1"/><polygon points="25.88 27 27.96 27 27.96 26 26 26 25.88 26 25.88 27"/><rect x="19.64" y="26" width="2.08" height="1"/><polygon points="4.04 27 6.12 27 6.12 26 6 26 4.04 26 4.04 27"/><rect x="22.76" y="26" width="2.08" height="1"/><rect x="29" y="26" width="1" height="1"/></svg>