<svg id="symbols" xmlns="http://www.w3.org/2000/svg" viewBox="0 0 32 32"><title>ACTION_7</title><polygon points="14.18 22.18 12.76 20.76 17.52 16 12.76 11.24 14.18 9.82 20.35 16 14.18 22.18"/><path d="M27.52,25h-23A2.48,2.48,0,0,1,2,22.52v-13A2.48,2.48,0,0,1,4.48,7h23A2.48,2.48,0,0,1,30,9.48v13A2.48,2.48,0,0,1,27.52,25ZM4.48,9A.48.48,0,0,0,4,9.48v13a.48.48,0,0,0,.48.48h23a.48.48,0,0,0,.48-.48v-13A.48.48,0,0,0,27.52,9Z"/><rect x="3" y="15" width="15" height="2"/><polygon points="14.18 22.18 12.76 20.76 17.52 16 12.76 11.24 14.18 9.82 20.35 16 14.18 22.18"/><path d="M27.52,25h-23A2.48,2.48,0,0,1,2,22.52v-13A2.48,2.48,0,0,1,4.48,7h23A2.48,2.48,0,0,1,30,9.48v13A2.48,2.48,0,0,1,27.52,25ZM4.48,9A.48.48,0,0,0,4,9.48v13a.48.48,0,0,0,.48.48h23a.48.48,0,0,0,.48-.48v-13A.48.48,0,0,0,27.52,9Z"/><rect x="3" y="15" width="15" height="2"/></svg>