<svg id="symbols" xmlns="http://www.w3.org/2000/svg" viewBox="0 0 32 32"><title>ACTION_12</title><polygon points="25.5 21.76 21.42 17.68 22.13 16.97 25.5 20.34 28.87 16.97 29.58 17.68 25.5 21.76"/><rect x="2.5" y="18.5" width="18" height="11" rx="1.48" ry="1.48" transform="translate(23 48) rotate(-180)"/><path d="M19,30H4a2,2,0,0,1-2-2V20a2,2,0,0,1,2-2H19a2,2,0,0,1,2,2v8A2,2,0,0,1,19,30ZM4,19a1,1,0,0,0-1,1v8a1,1,0,0,0,1,1H19a1,1,0,0,0,1-1V20a1,1,0,0,0-1-1Z"/><path d="M28,14H13a2,2,0,0,1-2-2V4a2,2,0,0,1,2-2H28a2,2,0,0,1,2,2v8A2,2,0,0,1,28,14ZM13,3a1,1,0,0,0-1,1v8a1,1,0,0,0,1,1H28a1,1,0,0,0,1-1V4a1,1,0,0,0-1-1Z"/><rect x="25" y="8.95" width="1" height="11.9"/></svg>