<svg id="symbols" xmlns="http://www.w3.org/2000/svg" viewBox="0 0 32 32"><title>ACTION_17</title><polygon points="14.73 20.08 14.02 19.37 17.39 16 14.02 12.63 14.73 11.92 18.81 16 14.73 20.08"/><rect x="19.5" y="12.5" width="10" height="7" rx="1.48" ry="1.48"/><path d="M28,20H21a2,2,0,0,1-2-2V14a2,2,0,0,1,2-2h7a2,2,0,0,1,2,2v4A2,2,0,0,1,28,20Zm-7-7a1,1,0,0,0-1,1v4a1,1,0,0,0,1,1h7a1,1,0,0,0,1-1V14a1,1,0,0,0-1-1Z"/><path d="M11,20H4a2,2,0,0,1-2-2V14a2,2,0,0,1,2-2h7a2,2,0,0,1,2,2v4A2,2,0,0,1,11,20ZM4,13a1,1,0,0,0-1,1v4a1,1,0,0,0,1,1h7a1,1,0,0,0,1-1V14a1,1,0,0,0-1-1Z"/><rect x="6" y="15.5" width="11.9" height="1"/></svg>