<svg id="symbols" xmlns="http://www.w3.org/2000/svg" viewBox="0 0 32 32"><title>ACTION_15</title><polygon points="5.57 20.08 1.49 16 5.57 11.92 6.28 12.63 2.91 16 6.28 19.37 5.57 20.08"/><rect x="19.5" y="12.5" width="10" height="7" rx="1.48" ry="1.48" transform="translate(49 32) rotate(-180)"/><path d="M28,20H21a2,2,0,0,1-2-2V14a2,2,0,0,1,2-2h7a2,2,0,0,1,2,2v4A2,2,0,0,1,28,20Zm-7-7a1,1,0,0,0-1,1v4a1,1,0,0,0,1,1h7a1,1,0,0,0,1-1V14a1,1,0,0,0-1-1Z"/><path d="M16,20H9.28a2,2,0,0,1-2-2V14a2,2,0,0,1,2-2H16a2,2,0,0,1,2,2v4A2,2,0,0,1,16,20ZM9.28,13a1,1,0,0,0-1,1v4a1,1,0,0,0,1,1H16a1,1,0,0,0,1-1V14a1,1,0,0,0-1-1Z"/><rect x="2.4" y="15.5" width="11.9" height="1"/></svg>