<svg id="symbols" xmlns="http://www.w3.org/2000/svg" viewBox="0 0 32 32"><title>ACTION_13</title><polygon points="30 17 24 17 24 16 29 16 29 11 30 11 30 17"/><rect x="2.5" y="18.5" width="18" height="11" rx="1.48" ry="1.48"/><path d="M19,30H4a2,2,0,0,1-2-2V20a2,2,0,0,1,2-2H19a2,2,0,0,1,2,2v8A2,2,0,0,1,19,30ZM4,19a1,1,0,0,0-1,1v8a1,1,0,0,0,1,1H19a1,1,0,0,0,1-1V20a1,1,0,0,0-1-1Z"/><path d="M25,14H10a2,2,0,0,1-2-2V4a2,2,0,0,1,2-2H25a2,2,0,0,1,2,2v8A2,2,0,0,1,25,14ZM10,3A1,1,0,0,0,9,4v8a1,1,0,0,0,1,1H25a1,1,0,0,0,1-1V4a1,1,0,0,0-1-1Z"/><rect x="24.43" y="5.98" width="1" height="11.9" transform="translate(-1.13 21.12) rotate(-45)"/></svg>