<svg id="symbols" xmlns="http://www.w3.org/2000/svg" viewBox="0 0 32 32"><title>ACTION_11</title><polygon points="6.5 21.76 2.42 17.68 3.13 16.97 6.5 20.34 9.87 16.97 10.58 17.68 6.5 21.76"/><rect x="11.5" y="18.5" width="18" height="11" rx="1.48" ry="1.48"/><path d="M28,30H13a2,2,0,0,1-2-2V20a2,2,0,0,1,2-2H28a2,2,0,0,1,2,2v8A2,2,0,0,1,28,30ZM13,19a1,1,0,0,0-1,1v8a1,1,0,0,0,1,1H28a1,1,0,0,0,1-1V20a1,1,0,0,0-1-1Z"/><path d="M19,14H4a2,2,0,0,1-2-2V4A2,2,0,0,1,4,2H19a2,2,0,0,1,2,2v8A2,2,0,0,1,19,14ZM4,3A1,1,0,0,0,3,4v8a1,1,0,0,0,1,1H19a1,1,0,0,0,1-1V4a1,1,0,0,0-1-1Z"/><rect x="6" y="8.95" width="1" height="11.9"/></svg>