<svg id="symbols" xmlns="http://www.w3.org/2000/svg" viewBox="0 0 32 32"><title>ACTION_14</title><polygon points="8 17 2 17 2 11 3 11 3 16 8 16 8 17"/><rect x="11.5" y="18.5" width="18" height="11" rx="1.48" ry="1.48" transform="translate(41 48) rotate(-180)"/><path d="M28,30H13a2,2,0,0,1-2-2V20a2,2,0,0,1,2-2H28a2,2,0,0,1,2,2v8A2,2,0,0,1,28,30ZM13,19a1,1,0,0,0-1,1v8a1,1,0,0,0,1,1H28a1,1,0,0,0,1-1V20a1,1,0,0,0-1-1Z"/><path d="M22,14H7a2,2,0,0,1-2-2V4A2,2,0,0,1,7,2H22a2,2,0,0,1,2,2v8A2,2,0,0,1,22,14ZM7,3A1,1,0,0,0,6,4v8a1,1,0,0,0,1,1H22a1,1,0,0,0,1-1V4a1,1,0,0,0-1-1Z"/><rect x="1.12" y="11.43" width="11.9" height="1" transform="translate(-6.36 8.49) rotate(-45)"/></svg>